<svg xmlns="http://www.w3.org/2000/svg" aria-hidden="true"
    style="position:absolute;width:0;height:0;overflow:hidden">
    <defs>
        <symbol id="logout" viewBox="0 0 32 32">
            <path fill="#cbccd0" d="M20 28H4V4h16v2h4V0H0v32h24v-6h-4v2z" />
            <path fill="#cbccd0"
                d="m24.586 8.586-2.828 2.828L24.344 14H14v4h10.344l-2.586 2.586 2.828 2.828L32 16l-7.414-7.414z" />
        </symbol>

        <symbol id="google" viewBox="0 0 31.25 32">
            <path fill="#2196f3"
                d="M31.394 13.038c.139 0 .251.115.251.258V16c0 1.012-.092 2.002-.268 2.962C30.015 26.419 23.6 32.054 15.911 32 7.283 31.939.379 24.8.398 15.964.417 7.144 7.405 0 16.021 0c4.221 0 8.052 1.715 10.864 4.501a.263.263 0 0 1 .004.369l-3.736 3.826a.247.247 0 0 1-.35.005C21.038 6.98 18.65 5.924 16.02 5.924c-5.43 0-9.802 4.446-9.839 10.007-.037 5.597 4.382 10.146 9.839 10.146 4.427 0 8.172-2.995 9.407-7.115h-9.155a.255.255 0 0 1-.252-.258v-5.408c0-.142.113-.258.252-.258h15.121z" />
            <path fill="#1e88e5"
                d="M31.393 13.038h-1.886c.139 0 .251.115.251.258V16c0 1.012-.092 2.002-.268 2.962-1.299 7.114-7.198 12.57-14.414 13.009.276.017.554.026.834.028 7.689.054 14.104-5.581 15.466-13.038.176-.96.268-1.95.268-2.962v-2.704a.255.255 0 0 0-.252-.258z" />
            <path fill="#f44336"
                d="M7.084 11.78 2.339 8.269C5.001 3.338 10.131 0 16.021 0c4.222 0 8.052 1.715 10.864 4.501a.263.263 0 0 1 .004.369l-3.736 3.826a.247.247 0 0 1-.35.005C21.038 6.98 18.65 5.924 16.02 5.924c-3.963 0-7.379 2.399-8.937 5.857z" />
            <path fill="#e53935"
                d="m5.714 10.767 1.37 1.014c1.423-3.156 4.393-5.429 7.914-5.802l.079-.009a9.768 9.768 0 0 0-.941-.046c-3.58 0-6.7 1.933-8.421 4.843zM24.999 4.501a.263.263 0 0 1 .004.369l-3.032 3.105c.291.226.569.468.832.726a.246.246 0 0 0 .35-.005l3.736-3.826a.264.264 0 0 0-.004-.369C24.073 1.715 20.243 0 16.021 0c-.317 0-.631.011-.943.03 3.847.235 7.32 1.894 9.921 4.471z" />
            <path fill="#4caf50"
                d="M27.482 26.874C24.629 30.027 20.55 32 16.021 32c-6.117 0-11.412-3.6-13.977-8.844l4.844-3.4c1.454 3.704 4.995 6.32 9.133 6.32a9.678 9.678 0 0 0 6.716-2.713l4.745 3.51z" />
            <path fill="#43a047"
                d="M6.888 19.756 5.46 20.759c1.659 3.165 4.922 5.318 8.675 5.318.317 0 .631-.016.941-.046-3.726-.364-6.846-2.855-8.187-6.274zM16.021 32c4.529 0 8.608-1.974 11.461-5.126l-1.162-.86c-2.679 3.414-6.698 5.679-11.239 5.957.311.019.625.029.941.029z" />
            <path fill="#ffc107"
                d="M6.182 16c0 1.328.251 2.595.707 3.756l-4.844 3.4A16.237 16.237 0 0 1 .398 16c0-2.804.704-5.439 1.941-7.731l4.745 3.511A10.238 10.238 0 0 0 6.182 16z" />
            <path fill="#ffb300"
                d="m5.46 20.759 1.428-1.003A10.256 10.256 0 0 1 6.181 16c0-1.507.323-2.937.902-4.22l-1.37-1.014a10.244 10.244 0 0 0-1.418 5.164 10.225 10.225 0 0 0 1.164 4.829z" />
        </symbol>

        <symbol id="close" viewBox="0 0 32 32">
            <path fill="none" stroke="#52555f" stroke-width="4.571"
                d="m2.286 2.286 27.429 27.429M2.286 29.714 29.715 2.285" />
        </symbol>

        <symbol id="reports" viewBox="0 0 32 32">
            <path fill="#52555f" d="M6.667 12.267h4v13.067h-4V12.267zm7.466-5.6h3.733v18.667h-3.733V6.667zM21.6 17.333h3.733v8H21.6v-8z"/>
        </symbol>

        <symbol id="back-arrow" viewBox="0 0 32 32">
            <path fill="#ff751d" d="M28 14.667H9.107L13.88 9.88 12 8l-8 8 8 8 1.88-1.88-4.773-4.787H28v-2.667z"/>
        </symbol>

        <symbol id="next" viewBox="0 0 19 32">
            <path fill="none" stroke="#ff751d" stroke-width="5.333" d="M2.667 2.667 13.334 16 2.667 29.333"/>
        </symbol>

        <symbol id="prev" viewBox="0 0 19 32">
            <path fill="none" stroke="#ff751d" stroke-width="5.333" d="M16 2.667 5.333 16 16 29.333"/>
        </symbol>

        <symbol id="add" viewBox="0 0 32 32">
            <path fill="#52555f" d="M31 12H20V1a1 1 0 0 0-1-1h-6a1 1 0 0 0-1 1v11H1a1 1 0 0 0-1 1v6a1 1 0 0 0 1 1h11v11a1 1 0 0 0 1 1h6a1 1 0 0 0 1-1V20h11a1 1 0 0 0 1-1v-6a1 1 0 0 0-1-1z"/>
        </symbol>

        <symbol id="calendar" viewBox="0 0 32 32">
            <path fill="#52555f" d="M27.961 3.307h-2.099v-.514a.938.938 0 1 0-1.874 0v.514h-2.587v-.514a.938.938 0 0 0-1.875 0v.514h-2.587v-.514a.938.938 0 1 0-1.875 0v.514h-2.587v-.514a.938.938 0 0 0-1.876 0v.514H8.014v-.514a.938.938 0 0 0-1.876 0v.514H4.039A4.044 4.044 0 0 0 0 7.346v18.758a4.044 4.044 0 0 0 4.039 4.039H27.96a4.044 4.044 0 0 0 4.039-4.039V7.346a4.044 4.044 0 0 0-4.039-4.039zm2.164 22.798a2.167 2.167 0 0 1-2.164 2.164H4.04a2.167 2.167 0 0 1-2.164-2.164V10.772h28.25v15.333zm0-17.208H1.875v-1.55c0-1.193.971-2.164 2.164-2.164h2.099v.362a.938.938 0 0 0 1.876 0v-.362h2.587v.362a.938.938 0 0 0 1.876 0v-.362h2.587v.362a.938.938 0 0 0 1.875 0v-.362h2.587v.362a.938.938 0 1 0 1.875 0v-.362h2.587v.362a.938.938 0 1 0 1.874 0v-.362h2.099c1.193 0 2.164.971 2.164 2.164v1.55z" />
            <path fill="#52555f" d="M10.451 12.771H6.752a.938.938 0 0 0-.938.938v3.828c0 .518.42.937.938.937h3.699c.518 0 .938-.42.938-.937v-3.828a.938.938 0 0 0-.938-.938zm-.938 3.827H7.689v-1.952h1.824v1.952zM17.85 12.771h-3.699a.938.938 0 0 0-.938.938v3.828c0 .518.42.937.938.937h3.699c.518 0 .937-.42.937-.937v-3.828a.938.938 0 0 0-.937-.938zm-.938 3.827h-1.824v-1.952h1.824v1.952zM25.248 12.771h-3.699a.937.937 0 0 0-.937.938v3.828c0 .518.42.937.937.937h3.699c.518 0 .937-.42.937-.937v-3.828a.938.938 0 0 0-.937-.938zm-.937 3.827h-1.824v-1.952h1.824v1.952zM10.451 20.041H6.752a.938.938 0 0 0-.938.938v3.827c0 .518.42.938.938.938h3.699c.518 0 .938-.42.938-.938v-3.827a.938.938 0 0 0-.938-.938zm-.938 3.827H7.689v-1.952h1.824v1.952zM17.85 20.041h-3.699a.938.938 0 0 0-.938.938v3.827c0 .518.42.938.938.938h3.699c.518 0 .937-.42.937-.938v-3.827a.938.938 0 0 0-.937-.938zm-.938 3.827h-1.824v-1.952h1.824v1.952zM25.248 20.041h-3.699a.937.937 0 0 0-.937.938v3.827c0 .518.42.938.937.938h3.699c.518 0 .937-.42.937-.938v-3.827a.938.938 0 0 0-.937-.938zm-.937 3.827h-1.824v-1.952h1.824v1.952z" />
        </symbol>

        <symbol id="calculator" viewBox="0 0 32 32">
            <path d="M27.25 0H4.75a2.816 2.816 0 0 0-2.813 2.813v26.375A2.815 2.815 0 0 0 4.75 32h22.5a2.816 2.816 0 0 0 2.813-2.812V2.813A2.816 2.816 0 0 0 27.25 0zm.938 29.188a.938.938 0 0 1-.938.937H4.75a.938.938 0 0 1-.938-.937V2.813a.94.94 0 0 1 .938-.938h22.5a.94.94 0 0 1 .938.938v26.375z" fill="#52555F"/>
            <path d="M25.375 3.75H6.625a.938.938 0 0 0-.938.938v7.625c0 .518.42.938.938.938h18.75c.518 0 .937-.42.937-.938V4.688a.938.938 0 0 0-.937-.938zm-.938 7.625H7.562v-5.75h16.875v5.75zM10.375 15.125h-3.75a.938.938 0 0 0-.938.938v3.75c0 .518.42.938.938.938h3.75c.518 0 .938-.42.938-.938v-3.75a.938.938 0 0 0-.938-.938zm-.937 3.75H7.563V17h1.875v1.875zM10.375 22.625h-3.75a.938.938 0 0 0-.938.938v3.75c0 .518.42.937.938.937h3.75c.518 0 .938-.42.938-.937v-3.75a.938.938 0 0 0-.938-.938zm-.937 3.75H7.563V24.5h1.875v1.875zM17.875 15.125h-3.75a.938.938 0 0 0-.938.938v3.75c0 .518.42.938.938.938h3.75c.518 0 .937-.42.937-.938v-3.75a.938.938 0 0 0-.937-.938zm-.938 3.75h-1.875V17h1.875v1.875zM17.875 22.625h-3.75a.938.938 0 0 0-.938.938v3.75c0 .518.42.937.938.937h3.75c.518 0 .937-.42.937-.937v-3.75a.938.938 0 0 0-.937-.938zm-.938 3.75h-1.875V24.5h1.875v1.875zM25.375 15.125h-3.75a.937.937 0 0 0-.937.938v11.25c0 .518.42.937.937.937h3.75c.518 0 .937-.42.937-.937v-11.25a.938.938 0 0 0-.937-.938zm-.938 11.25h-1.875V17h1.875v9.375z" fill="#52555F"/>
        </symbol>

        <symbol id="trash" viewBox="0 0 32 32">
            <path fill="#52555f" d="m28.992 7.153-.706-2.118a1.97 1.97 0 0 0-1.871-1.349h-5.938V1.753C20.477.787 19.691 0 18.725 0h-5.438c-.966 0-1.752.786-1.752 1.753v1.933H5.597c-.85 0-1.603.542-1.872 1.349l-.707 2.118A1.588 1.588 0 0 0 4.522 9.24h.739l1.625 20.1A2.908 2.908 0 0 0 9.768 32h12.804a2.909 2.909 0 0 0 2.882-2.66l1.625-20.1h.409c.508 0 .989-.246 1.286-.658s.379-.947.218-1.429zM13.409 1.875H18.6v1.811h-5.191V1.875zm10.176 27.314a1.023 1.023 0 0 1-1.013.936H9.768c-.525 0-.97-.411-1.013-.936L7.141 9.24h18.056l-1.613 19.949zM4.924 7.365l.579-1.737a.098.098 0 0 1 .093-.067h20.818c.042 0 .079.027.093.067l.579 1.737H4.924z"/>
            <path fill="#52555f" d="M20.595 29.122a.937.937 0 0 0 .985-.888l.88-16.9a.938.938 0 0 0-1.872-.098l-.88 16.9a.937.937 0 0 0 .887.985zM10.473 28.237c.027.5.441.886.935.886l.052-.001a.937.937 0 0 0 .885-.987l-.922-16.9a.937.937 0 1 0-1.872.102l.922 16.9zM16.016 29.123c.518 0 .938-.42.938-.937v-16.9a.938.938 0 0 0-1.876 0v16.9c0 .518.42.937.938.937z"/>
        </symbol>
    </defs>
</svg>
